<?xml version="1.0" encoding="iso-8859-1"?>
<!-- Generator: Adobe Illustrator 19.0.0, SVG Export Plug-In . SVG Version: 6.00 Build 0)  -->
<svg version="1.1" id="Layer_1" xmlns="http://www.w3.org/2000/svg" xmlns:xlink="http://www.w3.org/1999/xlink" x="0px" y="0px"
	 viewBox="0 0 490 490" style="enable-background:new 0 0 490 490;" xml:space="preserve">
<g>
	<g id="XMLID_39_">
		<g>
			<rect x="170" y="400" style="fill:#E7ECED;" width="150" height="80"/>
			<rect x="10" y="250" style="fill:#E7ECED;" width="150" height="80"/>
			<rect x="330" y="250" style="fill:#E7ECED;" width="150" height="80"/>
			<rect x="150" y="10" style="fill:#969DA1;" width="190" height="90"/>
		</g>
		<g>
			<path style="fill:#231F20;" d="M480,240h-65v-55c0-5.523-4.478-10-10-10H255v-65h85c5.522,0,10-4.477,10-10V10
				c0-5.523-4.478-10-10-10H150c-5.522,0-10,4.477-10,10v90c0,5.523,4.478,10,10,10h85v65H85c-5.522,0-10,4.477-10,10v55H10
				c-5.522,0-10,4.477-10,10v80c0,5.523,4.478,10,10,10h150c5.522,0,10-4.477,10-10v-80c0-5.523-4.478-10-10-10H95v-45h140v195h-65
				c-5.522,0-10,4.477-10,10v80c0,5.523,4.478,10,10,10h150c5.522,0,10-4.477,10-10v-80c0-5.523-4.478-10-10-10h-65V195h140v45h-65
				c-5.522,0-10,4.477-10,10v80c0,5.523,4.478,10,10,10h150c5.522,0,10-4.477,10-10v-80C490,244.477,485.522,240,480,240z M160,20
				h170v70H160V20z M150,320H20v-60h130V320z M310,470H180v-60h130V470z M470,320H340v-60h130V320z"/>
			<rect x="200" y="30" style="fill:#231F20;" width="90" height="20"/>
			<rect x="225" y="60" style="fill:#231F20;" width="40" height="20"/>
			<rect x="40" y="280" style="fill:#231F20;" width="40" height="20"/>
			<rect x="90" y="280" style="fill:#231F20;" width="40" height="20"/>
			<rect x="360" y="280" style="fill:#231F20;" width="40" height="20"/>
			<rect x="410" y="280" style="fill:#231F20;" width="40" height="20"/>
			<rect x="200" y="430" style="fill:#231F20;" width="40" height="20"/>
			<rect x="250" y="430" style="fill:#231F20;" width="40" height="20"/>
		</g>
	</g>
</g>
<g>
</g>
<g>
</g>
<g>
</g>
<g>
</g>
<g>
</g>
<g>
</g>
<g>
</g>
<g>
</g>
<g>
</g>
<g>
</g>
<g>
</g>
<g>
</g>
<g>
</g>
<g>
</g>
<g>
</g>
</svg>
