<?xml version="1.0" encoding="iso-8859-1"?>
<!-- Generator: Adobe Illustrator 19.0.0, SVG Export Plug-In . SVG Version: 6.00 Build 0)  -->
<svg version="1.1" id="Layer_1" xmlns="http://www.w3.org/2000/svg" xmlns:xlink="http://www.w3.org/1999/xlink" x="0px" y="0px"
	 viewBox="0 0 512 512" style="enable-background:new 0 0 512 512;" xml:space="preserve">
<g>
	<path style="fill:#E6E6E6;" d="M256,121.569c53.577,0,97.196-42.62,98.814-95.806h-38.705c0,33.197-26.912,60.109-60.109,60.109
		s-60.109-26.912-60.109-60.109h-38.705C158.803,78.95,202.422,121.569,256,121.569z"/>
	<path style="fill:#E6E6E6;" d="M116.702,183.839L15.598,99.228c-0.008,0.463-0.033,0.923-0.033,1.387l-5.367,305.314h102.999
		l-2.7-125.343L116.702,183.839z"/>
</g>
<path style="fill:#13B7DC;" d="M113.242,486.237h286.588v-80.309h0.044l2.699-125.343l-6.298-97.566l100.126-83.793
	c-0.69-37.046-28.877-67.9-65.873-71.769l-16.208-1.695h-59.507C353.196,78.95,309.577,121.57,256,121.57
	s-97.196-42.62-98.814-95.806H97.678l-16.208,1.695C44.476,31.327,16.29,62.182,15.599,99.228l101.104,84.612l-6.203,96.747
	l2.699,125.343h0.044V486.237z"/>
<path style="fill:#E6E6E6;" d="M496.401,99.228L396.275,183.02l6.298,97.566l-2.699,125.343H501.8l-5.367-305.314
	C496.434,100.15,496.41,99.691,496.401,99.228z"/>
<path d="M5.367,100.507L0.002,405.749c-0.048,2.736,1.005,5.376,2.923,7.328c1.916,1.951,4.538,3.051,7.274,3.051h92.844v70.109
	c0,5.632,4.566,10.199,10.199,10.199h286.588c5.633,0,10.199-4.567,10.199-10.199v-70.109h91.77c2.736,0,5.358-1.099,7.275-3.051
	c1.917-1.952,2.971-4.592,2.923-7.328l-5.366-305.243l-0.034-1.467c0-0.003-0.001-0.005-0.001-0.008
	c-0.789-42.198-33.035-77.329-75.008-81.717l-16.208-1.695c-0.352-0.037-0.706-0.056-1.061-0.056h-59.508h-38.705
	c-5.633,0-10.199,4.567-10.199,10.199c0,27.519-22.389,49.91-49.91,49.91s-49.91-22.389-49.91-49.91
	c0-5.632-4.566-10.199-10.199-10.199h-38.705H97.678c-0.355,0-0.709,0.019-1.061,0.056L80.41,17.315
	C38.436,21.703,6.19,56.835,5.401,99.033c0,0.002-0.001,0.005-0.001,0.008L5.367,100.507z M325.569,35.963h18.094
	c-5.858,39.713-37.523,70.317-77.466,74.815V95.324C296.818,90.854,321.1,66.582,325.569,35.963z M245.8,95.324v15.454
	c-39.942-4.498-71.607-35.103-77.466-74.815h18.094C190.899,66.582,215.181,90.854,245.8,95.324z M88.733,395.73v-6.12
	c0-5.632-4.566-10.199-10.199-10.199c-5.633,0-10.199,4.567-10.199,10.199v6.12H55.075v-6.12c0-5.632-4.566-10.199-10.199-10.199
	s-10.199,4.567-10.199,10.199v6.12H20.578l4.834-274.989l80.78,67.603l-5.873,91.589c-0.018,0.29-0.024,0.58-0.018,0.871
	l2.475,114.926H88.733z M266.199,476.038V196.845c0-5.632-4.566-10.199-10.199-10.199c-5.633,0-10.199,4.567-10.199,10.199v279.193
	H123.442v-6.874h28.526c5.633,0,10.199-4.567,10.199-10.199c0-5.632-4.566-10.199-10.199-10.199h-28.526v-6.12h28.526
	c5.633,0,10.199-4.567,10.199-10.199c0-5.632-4.566-10.199-10.199-10.199h-28.526v-16.319c0-0.397-0.022-0.786-0.067-1.171
	l-2.669-123.955l6.176-96.311c0.208-3.242-1.141-6.39-3.633-8.475L26.061,94.684c2.781-29.78,26.305-53.927,56.471-57.081
	l15.679-1.639h49.527c2.98,24.66,14.23,47.436,32.262,64.962c20.466,19.889,47.456,30.843,76,30.843
	c28.545,0,55.535-10.954,76-30.843c18.033-17.526,29.282-40.303,32.262-64.962h49.527l15.679,1.639
	c30.166,3.156,53.689,27.301,56.471,57.081l-96.209,80.516c-0.623,0.521-1.175,1.11-1.648,1.748
	c-1.421,1.917-2.141,4.298-1.984,6.73l6.27,97.126l-2.669,123.952c-0.044,0.385-0.066,0.776-0.066,1.172v16.319h-29.603
	c-5.633,0-10.199,4.567-10.199,10.199c0,5.632,4.566,10.199,10.199,10.199h29.6v6.12h-29.6c-5.633,0-10.199,4.567-10.199,10.199
	s4.566,10.199,10.199,10.199h29.6v6.874H266.199V476.038z M477.322,395.73v-6.12c0-5.632-4.566-10.199-10.199-10.199
	s-10.199,4.567-10.199,10.199v6.12h-13.259v-6.12c0-5.632-4.566-10.199-10.199-10.199s-10.199,4.567-10.199,10.199v6.12h-12.97
	l2.474-114.926c0.006-0.292,0-0.584-0.019-0.876l-5.966-92.405l79.801-66.783l4.834,274.99H477.322z"/>
<path d="M256,144.829c-5.633,0-10.199,4.567-10.199,10.199v9.179c0,5.632,4.566,10.199,10.199,10.199s10.199-4.567,10.199-10.199
	v-9.179C266.199,149.396,261.633,144.829,256,144.829z"/>
<path d="M306.996,215.204c2.61,0,5.221-0.996,7.212-2.987l37.737-37.737c3.983-3.983,3.983-10.441,0-14.425
	c-3.983-3.982-10.441-3.982-14.425,0l-37.737,37.737c-3.983,3.983-3.983,10.441,0,14.425
	C301.775,214.207,304.386,215.204,306.996,215.204z"/>
<path d="M351.944,210.032c-3.983-3.982-10.441-3.982-14.425,0l-37.737,37.737c-3.983,3.983-3.983,10.441,0,14.425
	c1.992,1.991,4.602,2.987,7.212,2.987c2.61,0,5.221-0.996,7.212-2.987l37.737-37.737
	C355.928,220.473,355.928,214.015,351.944,210.032z"/>
<g>
</g>
<g>
</g>
<g>
</g>
<g>
</g>
<g>
</g>
<g>
</g>
<g>
</g>
<g>
</g>
<g>
</g>
<g>
</g>
<g>
</g>
<g>
</g>
<g>
</g>
<g>
</g>
<g>
</g>
</svg>
