<?xml version="1.0" encoding="utf-8"?>

<!DOCTYPE svg PUBLIC "-//W3C//DTD SVG 1.1//EN" "http://www.w3.org/Graphics/SVG/1.1/DTD/svg11.dtd">
<svg version="1.1" id="Layer_1" xmlns="http://www.w3.org/2000/svg" xmlns:xlink="http://www.w3.org/1999/xlink" x="0px" y="0px"
	 viewBox="300.8434 28.7793 1979.1566 1516.7273" enable-background="new 300.8434 28.7793 1979.1566 1516.7273"
	 xml:space="preserve">
<g>
	<path fill="#404040" d="M758.7922,367.5346c20.2105-3.5125,41.374,2.7922,57.2632,15.5236
		c22.5817,17.9058,35.8005,45.4958,40.4986,73.5291c0.3768,3.446,1.3629,6.9252,0.9418,10.4155
		c-1.7728,8.7313-1.8615,17.9834,0.0443,26.7036c0.3878,2.7368-0.3657,5.4848-0.6316,8.2105
		c-3.3684,22.2493-11.8448,44.0776-26.2493,61.5513c-11.324,13.7174-26.493,24.7867-44,28.9418
		c-17.6067,4.2549-36.7424,1.2964-52.3214-7.9335c-17.7507-10.3823-31.18-27.1025-39.7119-45.6399
		c-12.9197-28.0333-15.5568-60.3435-8.9307-90.3712c4.9861-22.0609,15.4238-43.313,31.8116-59.1579
		C728.7092,378.1939,743.169,370.1828,758.7922,367.5346z"/>
	<path fill="#404040" d="M1879.9557,369.6066c14.7147-1.3407,29.7839,2.0388,42.4932,9.5845
		c15.6344,9.0305,27.8448,23.1357,36.3324,38.9252c11.047,20.5319,16.0443,44,15.8116,67.2244
		c-0.5319,27.2798-8.3324,54.9252-24.7756,76.964c-11.712,15.9114-28.5762,28.687-48.0775,33.0305
		c-18.5596,4.2881-38.6926,0.3324-54.5153-10.1718c-17.4515-11.0803-30.072-28.4875-38.1497-47.2687
		c-11.6787-27.5789-13.6067-58.8477-7.047-87.9446c4.7977-19.8781,13.8615-38.9917,27.8004-54.1164
		C1842.7813,381.662,1860.6206,371.3351,1879.9557,369.6066z"/>
	<path fill="#393939" d="M857.5402,493.7063c-1.9058-8.7202-1.8172-17.9723-0.0443-26.7036
		C858.8033,475.8448,858.759,484.8531,857.5402,493.7063z"/>
	<path fill="#404040" d="M441.4958,613.1745c15.9889-4.4654,34.1939,0.3213,45.9169,12.0997
		c7.2133,6.4709,11.2466,15.6454,14.0277,24.7535c52.7202,165.2964,105.374,330.615,158.1274,495.9003
		c106.7369,0.0665,213.4737,0.011,320.2216,0.0332c8.7202,0.2217,17.5291,2.3048,25.0416,6.8588
		c18.5706,10.5594,28.6426,34.6703,21.662,55.1136c-5.2742,18.6703-22.9695,32.7312-42.2382,34.1495
		c-52.3767,0.1218-104.7645-0.144-157.1302,0.1329l-1.0748,0.0996c-0.6537,40.9198,0.0776,81.8727-0.3546,122.8146
		c-0.0665,2.6593,0.1662,5.385,1.2521,7.8781c0.2105,0.1995,0.6316,0.5984,0.8311,0.7977
		c4.5983,1.9613,9.6953,1.0859,14.5485,1.1858c20.6758-0.0667,41.3629,0.022,62.0499-0.0444
		c6.4598-0.0776,12.9751,0.5873,19.3795-0.6316c26.6371,26.9917,53.651,53.6177,80.3768,80.5208
		c-133.3408,0.0222-266.6926,0.0222-400.0333,0c24.7091-24.7756,49.518-49.4626,74.2382-74.2161
		c2.0499-1.8835,3.7119-4.2548,6.1163-5.6731c32.5762-0.0886,65.1634,0.2881,97.7396-0.1774
		c0.4875-32.3988,0.0665-64.8088,0.1995-97.2076c-0.1773-11.7562,0.3767-23.5236-0.2216-35.2576l-1.0637-0.0887
		c-52.3767-0.277-104.7756-0.0111-157.1634-0.1329c-16.3546-1.3075-31.6676-11.5236-38.9917-26.2271
		c-3.169-5.3964-3.9668-11.6787-5.5956-17.5956c-2.5152-3.845-5.6177-7.3463-7.2908-11.6787
		c-4.3989-10.5153-7.2355-21.5956-10.8698-32.3767c-49.651-155.7009-99.2798-311.4128-148.9197-467.1137
		c-1.6399-5.3629-3.5679-10.6482-4.9418-16.0775c-4.1662-16.3768,1.3075-34.8477,13.8394-46.205
		C426.7701,619.2133,433.9723,615.4902,441.4958,613.1745z"/>
	<path fill="#404040" d="M2086.0056,634.3601c10.1497-16.8754,31.3684-26.2272,50.6372-21.7507
		c22.5151,4.2992,39.6675,26.6593,38.1497,49.4958c-0.6982,8.1662-3.2688,16-4.9973,23.9778
		c-42.2051,172.7424-84.2104,345.5291-126.4156,518.2604c-4.3101,20.5098-23.2244,36.8641-44.2104,37.7839
		c-52.4874-0.0333-104.975-0.0222-157.4626-0.0111c0.0776,43.8448-0.1772,87.7009,0.1219,131.5457l0.1108,1.0637
		c28.3656,0.6538,56.7645-0.0553,85.1412,0.3325c3.5125,0.0885,7.0359-0.1552,10.5262-0.7203
		c26.615,26.9806,53.6289,53.6067,80.3657,80.4987c-133.1302,0.0222-266.2494,0.0333-399.3687-0.0111
		c26.6372-27.2021,53.8615-53.8726,80.676-80.9086c7.0803,2.0388,14.4819,0.7424,21.7174,1.0416
		c24.6648-0.144,49.3629,0.3545,74.0166-0.2328l0.0997-1.0637c0.2881-43.8447,0.0333-87.7119,0.1218-131.5679
		c-48.3878,0.0222-96.7755,0.0111-145.1523,0.0111c-6.8477-0.0885-13.8503,0.6316-20.4431-1.5955
		c-17.1857-4.3435-31.0249-19.0582-34.6926-36.3324c-3.0027-11.9779-0.1107-24.9086,6.2605-35.302
		c7.9446-12.8865,22.2714-21.5402,37.385-22.5485c9.3407-0.7979,18.7368-0.1772,28.1107-0.3657c69.4294,0,138.8699,0,208.3103,0
		c27.9668-0.1329,55.9446,0.266,83.9114-0.1993c5.4515-24.3214,11.7894-48.4321,17.507-72.6981
		c33.4847-137.1744,66.9031-274.36,100.3545-411.5457C2079.2246,652.2881,2080.4543,642.4044,2086.0056,634.3601z"/>
	<path fill="#404040" d="M739.1025,620.3988c17.1523-4.3878,35.8116-2.637,51.8116,4.9973
		c23.5347,11.0914,41.1745,34.9142,43.3019,61.0305c-1.6731,11.5568-0.3102,23.2687-0.7867,34.903
		c0.1883,4.3435-0.8643,9.0637,1.1634,13.1191c16.8975,8.7756,33.097,18.8144,49.7175,28.0997
		c62.7147,35.856,125.4294,71.712,188.1108,107.6233c10.3601,5.6399,18.3601,15.6454,20.4213,27.3795
		c4.4099,19.8892-10.4821,41.3518-30.4709,44.687c-9.8726,2.2272-20.1884-0.3878-28.7091-5.5513
		c-52.6427-30.1052-105.2632-60.2327-157.9058-90.3269c-13.7397-7.734-27.2466-15.8892-41.1302-23.3684
		c-0.0665,71.4903,0.0222,142.9916-0.0333,214.493c89.7396,0.1329,179.4903,0.0222,269.23,0.0554
		c9.0969,0.1552,18.5153-0.9308,27.2244,2.4044c18.8365,5.6731,32.7534,23.9889,33.5291,43.6122
		c0.4542,12.2106,0.0665,24.4432,0.1995,36.6648c0,95.302-0.0111,190.5929,0,285.8948c0,9.2078-1.9391,18.5818-6.7368,26.5262
		c-10.1274,18.327-33.2854,28.3214-53.507,22.5486c-12.5652-3.2355-23.7008-11.8228-29.8726-23.2466
		c-4.5652-7.7783-6.349-16.8976-6.3158-25.8392c0.011-90.8588,0-181.7064,0.011-272.5652
		c-103.0471-0.0111-206.0831-0.0332-309.1191,0.0111c-10.0277,0.5208-19.989-2.8588-28.277-8.3768
		c-4.0333-2.7701-8.6537-4.5209-12.7756-7.1246c-17.1856-10.4598-30.0388-27.8228-34.7701-47.3906
		c-0.964-4.6538-2.194-9.3961-1.6288-14.1718c1.5402-6.7368,0.7756-13.651,0.8754-20.4764
		c0.0554-112.6648-0.0665-225.3296,0.0665-337.9944c-0.0997-2.4044-0.5429-4.7756-0.9307-7.1357
		c-0.3989-11.9335,3.8338-23.7119,9.5512-34.0609C701.5402,638.9474,719.0914,625.3518,739.1025,620.3988z"/>
	<path fill="#404040" d="M1824.6649,638.8587c16.6759-14.3268,39.7561-20.7534,61.4515-17.2078
		c25.6399,3.7783,48.4987,21.7064,58.6261,45.518c4.9529,11.0582,6.5594,23.3019,6.349,35.3352
		c-0.0333,111.5347,0,223.0693-0.0111,334.615c-0.1107,11.3906,0.6537,22.9363-1.8171,34.1606
		c-4.3878,20.8754-18.0721,39.5015-36.4766,50.2272c-9.3628,5.7397-20.0997,8.6316-30.8586,10.2604
		c-7.9889,2.5707-16.4099,1.6067-24.6427,1.7618c-98.6815,0.0111-197.374-0.0111-296.0553,0.0111
		c-0.0444,94.1938-0.0222,188.3877-0.0222,282.5817c-0.111,8.9972-2.5929,17.9723-7.2799,25.662
		c-10.626,17.9169-33.8171,27.5126-53.8615,21.2521c-19.7783-5.2632-35.4127-24.7423-34.8475-45.3518
		c1.5402-7.1024,0.6648-14.3712,0.8198-21.5623c0.0333-95.6565,0-191.3242,0.0111-286.9807
		c0.1552-5.3629,0.2771-10.759-0.842-16.0221c-0.9308-7.7341,2.626-14.9585,4.9529-22.1165
		c4.6758-15.1467,17.5181-27.4459,32.8199-31.5568c7.7783-2.5264,16.0553-1.8392,24.1107-1.9058
		c90.1163-0.0222,180.2439,0.0443,270.3602-0.0333c-0.0222-70.77,0.0443-141.5401-0.0333-212.2991
		c-40.2548,19.9113-80.1329,40.5983-120.2991,60.687c-30.2937,15.4792-60.6981,30.7258-91.0028,46.1497
		c-9.651,4.554-19.0803,10.9695-30.1495,10.9363c-16.6538,0.7645-32.6428-10.9806-37.5624-26.7811
		c-4.3879-12.8754-0.9198-27.9225,8.4985-37.6954c6.615-7.3019,16.0333-10.892,24.5762-15.3241
		c82.0056-41.4072,163.9225-82.9807,245.928-124.3878c0.0776-13.9391,0.0554-27.8892,0.0222-41.8282
		C1797.4294,674.8476,1807.7009,653.0415,1824.6649,638.8587z"/>
	<path fill="#2C2C2C" d="M833.4294,721.3296c0.4766-11.6343-0.8864-23.3463,0.7867-34.903
		c0.8864,15.9667,0.144,32.0222,0.3768,48.0222C832.5651,730.3933,833.6178,725.6731,833.4294,721.3296z"/>
	<path fill="#222222" d="M681.795,690.8809c0.3878,2.3602,0.831,4.7313,0.9307,7.1357
		c-0.1329,112.6649-0.0111,225.3297-0.0665,337.9945c-0.0997,6.8254,0.6648,13.7396-0.8754,20.4764
		c-0.964-3.8005-0.4875-7.7452-0.5762-11.6122c0-116.3325,0.0333-232.6649-0.0111-348.9973
		C681.1746,694.1717,681.374,692.5096,681.795,690.8809z"/>
	<path fill="#404040" d="M948,954.5595c3.8448-0.975,7.856-0.4653,11.7784-0.5651c240.8199,0.0222,481.6289,0,722.4377,0.011
		c6.1495,0.2438,12.576-0.9197,18.4487,1.4626c8.6095,3.457,15.047,12.41,14.6482,21.8171
		c0.1329,9.0416-5.9502,17.6288-14.205,21.097c-6.338,2.6038-13.3186,1.9612-20,2.0166
		c-241.5735,0.0111-483.147-0.0111-724.7203,0.0111c-5.6732-0.0665-11.6011-1.1302-16.2217-4.6094
		c-7.3573-5.2299-11.3795-15.0361-9.0748-23.8671C932.8089,963.5236,939.7231,956.6205,948,954.5595z"/>
	<path fill="#404040" d="M1246.7258,1020.4764c50.2382,0.0554,100.4766,0,150.7147,0.0222
		c0.1772,106.3712,0.0221,212.7424,0.0776,319.1136c-0.0555,38.4155,0.1107,76.8199-0.0887,115.2355
		c-50.2272,0.0222-100.4655-0.0333-150.7036,0.0222C1246.7479,1310.072,1246.7479,1165.2743,1246.7258,1020.4764z"/>
	<path fill="#222222" d="M1397.4406,1020.4986l1.3186,0.0222c-0.0111,144.7646-0.0111,289.5401,0,434.3157l-1.3297,0.0111
		c0.1995-38.4155,0.0332-76.8199,0.0887-115.2355C1397.4626,1233.241,1397.6178,1126.8698,1397.4406,1020.4986z"/>
	<path fill="#212121" d="M1465.2079,1093.1191c1.1191,5.2631,0.9972,10.6592,0.842,16.0221
		c-0.0111,95.6565,0.0222,191.3242-0.0111,286.9807c-0.155,7.191,0.7203,14.4598-0.8198,21.5623
		c-1.1636-9.3407-0.2218-18.8145-0.521-28.1995c0-94.9252,0-189.8503,0-284.7756
		C1464.7313,1100.8422,1464.3879,1096.9197,1465.2079,1093.1191z"/>
	<path fill="#212121" d="M781.108,1242.2161l1.0637,0.0887c0.5983,11.734,0.0443,23.5013,0.2216,35.2576
		c-0.1329,32.3988,0.2881,64.8088-0.1994,97.2076c-32.5762,0.4655-65.1635,0.0887-97.7396,0.1774
		c0.5872-2.205,3.3684-1.108,4.9861-1.4183c30.5263,0.0776,61.0637-0.0332,91.6011,0.0555
		C781.0084,1329.795,780.8754,1286.0055,781.108,1242.2161z"/>
	<path fill="#222222" d="M826.0499,1242.3157l1.0748-0.0996c0.3103,34.3048,0.0443,68.6205,0.133,102.9363
		c-0.1773,9.2743,0.3767,18.5929-0.3103,27.856c-1.0859-2.493-1.3185-5.2188-1.2521-7.8781
		C826.1274,1324.1884,825.3961,1283.2355,826.0499,1242.3157z"/>
	<path fill="#212121" d="M827.7784,1373.806c29.2077-0.6093,58.4487-0.0553,87.6786-0.277c2.7701,0.0111,5.64-0.2659,8.2991,0.7867
		c-6.4044,1.2189-12.9196,0.554-19.3795,0.6316c-20.687,0.0664-41.374-0.0222-62.0499,0.0444
		C837.4737,1374.892,832.3768,1375.7673,827.7784,1373.806z"/>
	<path fill="#212121" d="M1699.2799,1373.9169c11.6343-0.8311,23.3462-0.144,35.0138-0.3656
		c20.266,0.0775,40.5428-0.1552,60.8199,0.1107l-0.0996,1.0637c-24.6538,0.5873-49.3519,0.0887-74.0167,0.2328
		C1713.7618,1374.6593,1706.3602,1375.9557,1699.2799,1373.9169z"/>
	<path fill="#212121" d="M1841.8284,1373.662c29.1523-0.2659,58.3158-0.011,87.4792-0.1329
		c2.7589,0.0222,5.6287-0.277,8.2991,0.8088c-3.4904,0.5652-7.0138,0.8088-10.5262,0.7203
		c-28.3767-0.3878-56.7756,0.3213-85.1412-0.3325L1841.8284,1373.662z"/>
</g>
</svg>
