<?xml version="1.0" encoding="iso-8859-1"?>
<!-- Generator: Adobe Illustrator 19.0.0, SVG Export Plug-In . SVG Version: 6.00 Build 0)  -->
<svg version="1.1" id="Layer_1" xmlns="http://www.w3.org/2000/svg" xmlns:xlink="http://www.w3.org/1999/xlink" x="0px" y="0px"
	 viewBox="0 0 512.003 512.003" style="enable-background:new 0 0 512.003 512.003;" xml:space="preserve">
<g>
	<path style="fill:#57565C;" d="M512,22.36c0-9.239-7.49-16.728-16.728-16.728h-121.56c-9.239,0-16.728,7.49-16.728,16.728v467.283
		c0,9.239,7.49,16.729,16.728,16.729h121.56c9.239,0,16.728-7.49,16.728-16.729V22.36z"/>
	<path style="fill:#57565C;" d="M317.79,146.151c0-5.307-2.519-10.3-6.787-13.454c-4.269-3.155-9.781-4.096-14.855-2.536
		l-90.732,27.881c-7.023,2.158-11.815,8.644-11.815,15.99v137.174c0,9.239,7.49,16.728,16.728,16.728h90.732
		c9.239,0,16.728-7.49,16.728-16.728V146.151z"/>
	<path style="fill:#57565C;" d="M153.851,203.028c0-5.355-2.564-10.387-6.898-13.536s-9.912-4.029-15.005-2.372l-85.715,27.881
		c-6.89,2.241-11.554,8.663-11.554,15.908v137.174c0,9.239,7.49,16.729,16.728,16.729h85.713c9.239,0,16.729-7.49,16.729-16.729
		V203.028H153.851z"/>
</g>
<path style="fill:#88878F;" d="M512,272.173H16.728C7.49,272.173,0,279.662,0,288.901v200.742c0,9.239,7.49,16.729,16.728,16.729
	h478.543c9.239,0,16.728-7.49,16.728-16.729V272.173z"/>
<path style="fill:#727178;" d="M254.804,272.173v234.199h240.468c9.239,0,16.728-7.49,16.728-16.729v-217.47H254.804z"/>
<path style="fill:#D0E6F7;" d="M205.586,451.725H68.658c-4.639,0-8.401-3.762-8.401-8.401v-76.877c0-4.639,3.762-8.401,8.401-8.401
	h136.929c4.639,0,8.401,3.762,8.401,8.401v76.877C213.988,447.964,210.227,451.725,205.586,451.725z"/>
<path style="fill:#BBDDF7;" d="M205.586,340.202H68.658c-4.639,0-8.401,3.762-8.401,8.401v17.844c0-4.639,3.762-8.401,8.401-8.401
	h136.929c4.639,0,8.401,3.762,8.401,8.401v-17.844C213.988,343.963,210.227,340.202,205.586,340.202z"/>
<path style="fill:#57565C;" d="M327.708,506.371h115.798V355.583c0-8.495-6.887-15.381-15.381-15.381h-85.036
	c-8.495,0-15.381,6.887-15.381,15.381v150.788H327.708z"/>
<g>
	<rect x="356.986" y="237.603" style="fill:#4B4A4F;" width="155.017" height="34.572"/>
	<rect x="193.604" y="237.603" style="fill:#4B4A4F;" width="124.003" height="34.572"/>
	<rect x="34.684" y="238.16" style="fill:#4B4A4F;" width="119.598" height="34.572"/>
</g>
<g>
	
		<line style="fill:none;stroke:#88878F;stroke-width:20;stroke-miterlimit:10;" x1="137.118" y1="340.204" x2="137.118" y2="451.727"/>
	
		<line style="fill:none;stroke:#88878F;stroke-width:20;stroke-miterlimit:10;" x1="60.256" y1="395.966" x2="213.991" y2="395.966"/>
</g>
<g>
	<path style="fill:#4B4A4F;" d="M428.124,340.202h-42.518v166.17h57.9V355.583C443.506,347.088,436.619,340.202,428.124,340.202z"/>
	<path style="fill:#4B4A4F;" d="M460.142,198.567h-51.301c-4.106,0-7.435-3.329-7.435-7.435v-51.301
		c0-4.106,3.329-7.435,7.435-7.435h51.301c4.106,0,7.435,3.329,7.435,7.435v51.301C467.576,195.239,464.248,198.567,460.142,198.567
		z"/>
	<path style="fill:#4B4A4F;" d="M460.142,112.694h-51.301c-4.106,0-7.435-3.329-7.435-7.435V53.958c0-4.106,3.329-7.435,7.435-7.435
		h51.301c4.106,0,7.435,3.329,7.435,7.435v51.301C467.576,109.366,464.248,112.694,460.142,112.694z"/>
</g>
<g>
</g>
<g>
</g>
<g>
</g>
<g>
</g>
<g>
</g>
<g>
</g>
<g>
</g>
<g>
</g>
<g>
</g>
<g>
</g>
<g>
</g>
<g>
</g>
<g>
</g>
<g>
</g>
<g>
</g>
</svg>
