<?xml version="1.0" encoding="iso-8859-1"?>
<!-- Generator: Adobe Illustrator 19.0.0, SVG Export Plug-In . SVG Version: 6.00 Build 0)  -->
<svg version="1.1" id="Layer_1" xmlns="http://www.w3.org/2000/svg" xmlns:xlink="http://www.w3.org/1999/xlink" x="0px" y="0px"
	 viewBox="0 0 512 512" style="enable-background:new 0 0 512 512;" xml:space="preserve">
<path style="fill:#8B9BC1;" d="M450.207,476.69H26.483C11.476,476.69,0,465.214,0,450.207V167.724
	c0-15.007,11.476-26.483,26.483-26.483h423.724c15.007,0,26.483,11.476,26.483,26.483v282.483
	C476.69,465.214,465.214,476.69,450.207,476.69"/>
<polygon style="fill:#556080;" points="132.414,264.828 35.31,361.931 61.793,388.414 132.414,317.793 132.414,317.793 
	132.414,317.793 203.034,388.414 229.517,361.931 "/>
<polygon style="fill:#6D7EA4;" points="132.414,317.793 79.448,370.759 79.448,441.379 185.379,441.379 185.379,370.759 "/>
<g>
	<path style="fill:#556080;" d="M441.379,308.966H273.655c-5.297,0-8.828-3.531-8.828-8.828c0-5.297,3.531-8.828,8.828-8.828
		h167.724c5.297,0,8.828,3.531,8.828,8.828C450.207,305.434,446.676,308.966,441.379,308.966"/>
	<path style="fill:#556080;" d="M441.379,361.931h-79.448c-5.297,0-8.828-3.531-8.828-8.828s3.531-8.828,8.828-8.828h79.448
		c5.297,0,8.828,3.531,8.828,8.828S446.676,361.931,441.379,361.931"/>
	<path style="fill:#556080;" d="M326.621,361.931h-52.966c-5.297,0-8.828-3.531-8.828-8.828s3.531-8.828,8.828-8.828h52.966
		c5.297,0,8.828,3.531,8.828,8.828S331.917,361.931,326.621,361.931"/>
	<path style="fill:#556080;" d="M441.379,414.897h-44.138c-5.297,0-8.828-3.531-8.828-8.828s3.531-8.828,8.828-8.828h44.138
		c5.297,0,8.828,3.531,8.828,8.828S446.676,414.897,441.379,414.897"/>
	<path style="fill:#556080;" d="M361.931,414.897h-88.276c-5.297,0-8.828-3.531-8.828-8.828s3.531-8.828,8.828-8.828h88.276
		c5.297,0,8.828,3.531,8.828,8.828S367.228,414.897,361.931,414.897"/>
	<path style="fill:#556080;" d="M123.586,203.034c0-15.007-11.476-26.483-26.483-26.483s-26.483,11.476-26.483,26.483
		c0,15.007,11.476,26.483,26.483,26.483S123.586,218.041,123.586,203.034"/>
	<path style="fill:#556080;" d="M406.069,203.034c0-15.007-11.476-26.483-26.483-26.483s-26.483,11.476-26.483,26.483
		c0,15.007,11.476,26.483,26.483,26.483S406.069,218.041,406.069,203.034"/>
</g>
<g>
	<path style="fill:#E6EEF3;" d="M97.103,203.034c-5.297,0-8.828-3.531-8.828-8.828V88.276c0-5.297,3.531-8.828,8.828-8.828
		s8.828,3.531,8.828,8.828v105.931C105.931,199.503,102.4,203.034,97.103,203.034"/>
	<path style="fill:#E6EEF3;" d="M379.586,203.034c-5.297,0-8.828-3.531-8.828-8.828V88.276c0-5.297,3.531-8.828,8.828-8.828
		s8.828,3.531,8.828,8.828v105.931C388.414,199.503,384.883,203.034,379.586,203.034"/>
</g>
<path style="fill:#556080;" d="M512,70.621c0-19.421-15.89-35.31-35.31-35.31c-19.421,0-35.31,15.89-35.31,35.31
	s15.89,35.31,35.31,35.31C496.11,105.931,512,90.041,512,70.621"/>
<path style="fill:#8B9BC1;" d="M441.379,70.621c0-6.179,1.766-12.359,5.297-17.655H0v35.31h446.676
	C443.145,82.979,441.379,76.8,441.379,70.621"/>
<g>
</g>
<g>
</g>
<g>
</g>
<g>
</g>
<g>
</g>
<g>
</g>
<g>
</g>
<g>
</g>
<g>
</g>
<g>
</g>
<g>
</g>
<g>
</g>
<g>
</g>
<g>
</g>
<g>
</g>
</svg>
