<?xml version="1.0" encoding="iso-8859-1"?>
<!-- Generator: Adobe Illustrator 19.0.0, SVG Export Plug-In . SVG Version: 6.00 Build 0)  -->
<svg version="1.1" id="Layer_1" xmlns="http://www.w3.org/2000/svg" xmlns:xlink="http://www.w3.org/1999/xlink" x="0px" y="0px"
	 viewBox="0 0 512 512" style="enable-background:new 0 0 512 512;" xml:space="preserve">
<g transform="translate(1 1)">
	<path style="fill:#FFE100;" d="M434.2,63h-384c-9.387,0-17.067-7.68-17.067-17.067s7.68-17.067,17.067-17.067h384
		c9.387,0,17.067,7.68,17.067,17.067S443.587,63,434.2,63"/>
	<path style="fill:#FFFFFF;" d="M33.133,45.933c0-9.387,7.68-17.067,17.067-17.067H24.6c-9.387,0-17.067,7.68-17.067,17.067
		S15.213,63,24.6,63h25.6C40.813,63,33.133,55.32,33.133,45.933"/>
	<path style="fill:#FFA800;" d="M459.8,28.867h-25.6c9.387,0,17.067,7.68,17.067,17.067S443.587,63,434.2,63h25.6
		c9.387,0,17.067-7.68,17.067-17.067S469.187,28.867,459.8,28.867"/>
	<path style="fill:#FFE100;" d="M434.2,131.267h-384c-9.387,0-17.067-7.68-17.067-17.067s7.68-17.067,17.067-17.067h384
		c9.387,0,17.067,7.68,17.067,17.067S443.587,131.267,434.2,131.267"/>
	<path style="fill:#FFFFFF;" d="M33.133,114.2c0-9.387,7.68-17.067,17.067-17.067H24.6c-9.387,0-17.067,7.68-17.067,17.067
		s7.68,17.067,17.067,17.067h25.6C40.813,131.267,33.133,123.587,33.133,114.2"/>
	<path style="fill:#FFA800;" d="M459.8,97.133h-25.6c9.387,0,17.067,7.68,17.067,17.067s-7.68,17.067-17.067,17.067h25.6
		c9.387,0,17.067-7.68,17.067-17.067S469.187,97.133,459.8,97.133"/>
	<path style="fill:#FFE100;" d="M263.533,327.533h-230.4V191c0-13.653,11.093-24.747,24.747-24.747h180.907
		c13.653,0,24.747,6.827,24.747,24.747V327.533z"/>
	<path style="fill:#FECC00;" d="M33.133,327.533V408.6c0,11.947,9.387,21.333,21.333,21.333H50.2c0-28.16,23.04-51.2,51.2-51.2
		s51.2,23.04,51.2,51.2h110.933v-102.4H33.133z"/>
	<path style="fill:#FFFFFF;" d="M33.133,408.6v-81.067l0,0V191c0-13.653,11.093-24.747,24.747-24.747h-25.6
		c-13.653,0-24.747,11.093-24.747,24.747v136.533l0,0V408.6c0,11.947,9.387,21.333,21.333,21.333H50.2l0,0
		C40.813,427.373,33.133,418.84,33.133,408.6"/>
	<path style="fill:#FFE100;" d="M440.173,264.387L383,182.467c-5.12-5.973-14.507-26.453-23.04-17.067h-96.427v264.533H357.4
		c0-28.16,23.04-51.2,51.2-51.2c28.16,0,42.667,23.04,42.667,51.2h6.827c10.24,0,18.773-8.533,18.773-19.627v-122.88
		c0-10.24-8.533-18.773-18.773-18.773L440.173,264.387z"/>
	<path style="fill:#FFA800;" d="M483.693,267.8h-25.6c10.24,0,18.773,8.533,18.773,18.773v123.733c0,10.24-7.68,17.92-17.067,18.773
		l0,0h23.893c10.24,0,18.773-8.533,18.773-18.773V286.573C502.467,276.333,493.933,267.8,483.693,267.8"/>
	<path style="fill:#FECC00;" d="M434.2,429.933c0,28.16-17.067,51.2-38.4,51.2s-38.4-23.04-38.4-51.2s17.067-51.2,38.4-51.2
		S434.2,401.773,434.2,429.933"/>
	<path style="fill:#FFA800;" d="M407.747,378.733c-2.56,0-5.12,0-7.68,0.853c18.773,3.413,33.28,24.747,33.28,50.347
		s-14.507,46.933-33.28,50.347c2.56,0,5.12,0.853,7.68,0.853c28.16,0,51.2-23.04,51.2-51.2S435.907,378.733,407.747,378.733"/>
	<path style="fill:#FECC00;" d="M127.853,429.933c0,28.16-17.067,51.2-38.4,51.2s-38.4-23.04-38.4-51.2s17.067-51.2,38.4-51.2
		S127.853,401.773,127.853,429.933"/>
	<path style="fill:#FFA800;" d="M101.4,378.733c-2.56,0-5.12,0-7.68,0.853C112.493,383,127,404.333,127,429.933
		s-14.507,46.933-33.28,50.347c2.56,0,5.12,0.853,7.68,0.853c28.16,0,51.2-23.04,51.2-51.2S129.56,378.733,101.4,378.733"/>
	<path d="M272.067,336.067H-1v-145.92c0-17.92,14.507-33.28,33.28-33.28h239.787V336.067z M16.067,319H255V173.933H32.28
		c-8.533,0-16.213,6.827-16.213,16.213C16.067,190.147,16.067,319,16.067,319z"/>
	<path d="M408.6,489.667c-33.28,0-59.733-26.453-59.733-59.733S375.32,370.2,408.6,370.2s59.733,26.453,59.733,59.733
		S441.88,489.667,408.6,489.667z M408.6,387.267c-23.893,0-42.667,18.773-42.667,42.667c0,23.893,18.773,42.667,42.667,42.667
		c23.893,0,42.667-18.773,42.667-42.667C451.267,406.04,432.493,387.267,408.6,387.267z"/>
	<path d="M101.4,489.667c-33.28,0-59.733-26.453-59.733-59.733S68.12,370.2,101.4,370.2s59.733,26.453,59.733,59.733
		S134.68,489.667,101.4,489.667z M101.4,387.267c-23.893,0-42.667,18.773-42.667,42.667c0,23.893,18.773,42.667,42.667,42.667
		s42.667-18.773,42.667-42.667C144.067,406.04,125.293,387.267,101.4,387.267z"/>
	<path d="M502.467,336.067H357.4c-5.12,0-8.533-3.413-8.533-8.533S352.28,319,357.4,319h145.067c5.12,0,8.533,3.413,8.533,8.533
		S507.587,336.067,502.467,336.067z"/>
	<path d="M135.533,276.333h-128C2.413,276.333-1,272.92-1,267.8s3.413-8.533,8.533-8.533h128c5.12,0,8.533,3.413,8.533,8.533
		S140.653,276.333,135.533,276.333z"/>
	<path d="M101.4,233.667H7.533c-5.12,0-8.533-3.413-8.533-8.533c0-5.12,3.413-8.533,8.533-8.533H101.4
		c5.12,0,8.533,3.413,8.533,8.533C109.933,230.253,106.52,233.667,101.4,233.667z"/>
	<path d="M483.693,438.467h-32.427v-8.533c0-23.893-18.773-42.667-42.667-42.667c-23.893,0-42.667,18.773-42.667,42.667v8.533H255
		v-281.6h104.96c11.947,0,22.187,5.12,29.867,14.507l58.88,87.893h0.853h35.84c15.36,0,25.6,10.24,25.6,25.6v125.44
		C511,425.667,498.2,438.467,483.693,438.467z M467.48,421.4h15.36c5.973,0,10.24-5.12,10.24-11.093v-125.44
		c0-5.973-2.56-8.533-8.533-8.533h-35.84c-5.973,0-11.093-2.56-14.507-6.827l-0.853-0.853l-58.88-87.893
		c-3.413-4.267-9.387-6.827-16.213-6.827h-86.187V421.4h77.653c4.267-29.013,29.013-51.2,58.88-51.2
		C438.467,370.2,463.213,392.387,467.48,421.4z"/>
	<path d="M272.067,438.467h-128v-8.533c0-23.893-18.773-42.667-42.667-42.667s-42.667,18.773-42.667,42.667v8.533H24.6
		c-14.507,0-25.6-11.093-25.6-25.6V319h273.067V438.467z M160.28,421.4H255v-85.333H16.067v76.8c0,5.12,3.413,8.533,8.533,8.533
		h17.92c4.267-29.013,29.013-51.2,58.88-51.2S156.013,392.387,160.28,421.4z"/>
	<path d="M118.467,429.933c0,9.387-7.68,17.067-17.067,17.067s-17.067-7.68-17.067-17.067s7.68-17.067,17.067-17.067
		S118.467,420.547,118.467,429.933"/>
	<path d="M425.667,429.933c0,9.387-7.68,17.067-17.067,17.067c-9.387,0-17.067-7.68-17.067-17.067s7.68-17.067,17.067-17.067
		C417.987,412.867,425.667,420.547,425.667,429.933"/>
	<path d="M92.867,173.933c-5.12,0-8.533-3.413-8.533-8.533V63c0-5.12,3.413-8.533,8.533-8.533S101.4,57.88,101.4,63v102.4
		C101.4,170.52,97.987,173.933,92.867,173.933z"/>
	<path d="M50.2,139.8c-5.12,0-8.533-3.413-8.533-8.533V97.133c0-5.12,3.413-8.533,8.533-8.533s8.533,3.413,8.533,8.533v34.133
		C58.733,136.387,55.32,139.8,50.2,139.8z"/>
	<path d="M92.867,139.8c-5.12,0-8.533-3.413-8.533-8.533V97.133c0-5.12,3.413-8.533,8.533-8.533s8.533,3.413,8.533,8.533v34.133
		C101.4,136.387,97.987,139.8,92.867,139.8z"/>
	<path d="M135.533,139.8c-5.12,0-8.533-3.413-8.533-8.533V97.133c0-5.12,3.413-8.533,8.533-8.533s8.533,3.413,8.533,8.533v34.133
		C144.067,136.387,140.653,139.8,135.533,139.8z"/>
	<path d="M178.2,139.8c-5.12,0-8.533-3.413-8.533-8.533V97.133c0-5.12,3.413-8.533,8.533-8.533c5.12,0,8.533,3.413,8.533,8.533
		v34.133C186.733,136.387,183.32,139.8,178.2,139.8z"/>
	<path d="M220.867,139.8c-5.12,0-8.533-3.413-8.533-8.533V97.133c0-5.12,3.413-8.533,8.533-8.533c5.12,0,8.533,3.413,8.533,8.533
		v34.133C229.4,136.387,225.987,139.8,220.867,139.8z"/>
	<path d="M263.533,139.8c-5.12,0-8.533-3.413-8.533-8.533V97.133c0-5.12,3.413-8.533,8.533-8.533c5.12,0,8.533,3.413,8.533,8.533
		v34.133C272.067,136.387,268.653,139.8,263.533,139.8z"/>
	<path d="M306.2,139.8c-5.12,0-8.533-3.413-8.533-8.533V97.133c0-5.12,3.413-8.533,8.533-8.533s8.533,3.413,8.533,8.533v34.133
		C314.733,136.387,311.32,139.8,306.2,139.8z"/>
	<path d="M348.867,139.8c-5.12,0-8.533-3.413-8.533-8.533V97.133c0-5.12,3.413-8.533,8.533-8.533c5.12,0,8.533,3.413,8.533,8.533
		v34.133C357.4,136.387,353.987,139.8,348.867,139.8z"/>
	<path d="M391.533,139.8c-5.12,0-8.533-3.413-8.533-8.533V97.133c0-5.12,3.413-8.533,8.533-8.533s8.533,3.413,8.533,8.533v34.133
		C400.067,136.387,396.653,139.8,391.533,139.8z"/>
	<path d="M434.2,139.8c-5.12,0-8.533-3.413-8.533-8.533V97.133c0-5.12,3.413-8.533,8.533-8.533c5.12,0,8.533,3.413,8.533,8.533
		v34.133C442.733,136.387,439.32,139.8,434.2,139.8z"/>
	<path d="M50.2,71.533c-5.12,0-8.533-3.413-8.533-8.533V28.867c0-5.12,3.413-8.533,8.533-8.533s8.533,3.413,8.533,8.533V63
		C58.733,68.12,55.32,71.533,50.2,71.533z"/>
	<path d="M92.867,71.533c-5.12,0-8.533-3.413-8.533-8.533V28.867c0-5.12,3.413-8.533,8.533-8.533s8.533,3.413,8.533,8.533V63
		C101.4,68.12,97.987,71.533,92.867,71.533z"/>
	<path d="M135.533,71.533c-5.12,0-8.533-3.413-8.533-8.533V28.867c0-5.12,3.413-8.533,8.533-8.533s8.533,3.413,8.533,8.533V63
		C144.067,68.12,140.653,71.533,135.533,71.533z"/>
	<path d="M178.2,71.533c-5.12,0-8.533-3.413-8.533-8.533V28.867c0-5.12,3.413-8.533,8.533-8.533c5.12,0,8.533,3.413,8.533,8.533V63
		C186.733,68.12,183.32,71.533,178.2,71.533z"/>
	<path d="M220.867,71.533c-5.12,0-8.533-3.413-8.533-8.533V28.867c0-5.12,3.413-8.533,8.533-8.533c5.12,0,8.533,3.413,8.533,8.533
		V63C229.4,68.12,225.987,71.533,220.867,71.533z"/>
	<path d="M263.533,71.533c-5.12,0-8.533-3.413-8.533-8.533V28.867c0-5.12,3.413-8.533,8.533-8.533c5.12,0,8.533,3.413,8.533,8.533
		V63C272.067,68.12,268.653,71.533,263.533,71.533z"/>
	<path d="M306.2,71.533c-5.12,0-8.533-3.413-8.533-8.533V28.867c0-5.12,3.413-8.533,8.533-8.533s8.533,3.413,8.533,8.533V63
		C314.733,68.12,311.32,71.533,306.2,71.533z"/>
	<path d="M348.867,71.533c-5.12,0-8.533-3.413-8.533-8.533V28.867c0-5.12,3.413-8.533,8.533-8.533c5.12,0,8.533,3.413,8.533,8.533
		V63C357.4,68.12,353.987,71.533,348.867,71.533z"/>
	<path d="M391.533,71.533c-5.12,0-8.533-3.413-8.533-8.533V28.867c0-5.12,3.413-8.533,8.533-8.533s8.533,3.413,8.533,8.533V63
		C400.067,68.12,396.653,71.533,391.533,71.533z"/>
	<path d="M434.2,71.533c-5.12,0-8.533-3.413-8.533-8.533V28.867c0-5.12,3.413-8.533,8.533-8.533c5.12,0,8.533,3.413,8.533,8.533V63
		C442.733,68.12,439.32,71.533,434.2,71.533z"/>
	<path d="M263.533,173.933c-5.12,0-8.533-3.413-8.533-8.533V63c0-5.12,3.413-8.533,8.533-8.533c5.12,0,8.533,3.413,8.533,8.533
		v102.4C272.067,170.52,268.653,173.933,263.533,173.933z"/>
	<path d="M459.8,139.8H24.6C10.093,139.8-1,128.707-1,114.2s11.093-25.6,25.6-25.6h435.2c14.507,0,25.6,11.093,25.6,25.6
		S474.307,139.8,459.8,139.8z M24.6,105.667c-5.12,0-8.533,3.413-8.533,8.533s3.413,8.533,8.533,8.533h435.2
		c5.12,0,8.533-3.413,8.533-8.533s-3.413-8.533-8.533-8.533H24.6z"/>
	<path d="M459.8,71.533H24.6C10.093,71.533-1,60.44-1,45.933s11.093-25.6,25.6-25.6h435.2c14.507,0,25.6,11.093,25.6,25.6
		S474.307,71.533,459.8,71.533z M24.6,37.4c-5.12,0-8.533,3.413-8.533,8.533s3.413,8.533,8.533,8.533h435.2
		c5.12,0,8.533-3.413,8.533-8.533S464.92,37.4,459.8,37.4H24.6z"/>
	<path d="M448.707,259.267H329.24c-12.8,0-23.04-10.24-23.04-23.04v-79.36h53.76c11.947,0,22.187,5.12,29.867,14.507
		L448.707,259.267z M323.267,173.933v62.293c0,3.413,2.56,5.973,5.973,5.973h87.893l-40.96-61.44
		c-3.413-4.267-9.387-6.827-16.213-6.827H323.267z"/>
</g>
<g>
</g>
<g>
</g>
<g>
</g>
<g>
</g>
<g>
</g>
<g>
</g>
<g>
</g>
<g>
</g>
<g>
</g>
<g>
</g>
<g>
</g>
<g>
</g>
<g>
</g>
<g>
</g>
<g>
</g>
</svg>
