<?xml version="1.0" encoding="iso-8859-1"?>
<!-- Generator: Adobe Illustrator 19.0.0, SVG Export Plug-In . SVG Version: 6.00 Build 0)  -->
<svg version="1.1" id="Layer_1" xmlns="http://www.w3.org/2000/svg" xmlns:xlink="http://www.w3.org/1999/xlink" x="0px" y="0px"
	 viewBox="0 0 512 512" style="enable-background:new 0 0 512 512;" xml:space="preserve">
<rect x="167.999" y="224.183" style="fill:#FCBB3B;" width="271.997" height="216.001"/>
<rect x="167.999" y="224.183" style="fill:#AF7C18;" width="95.995" height="216.001"/>
<rect x="159.995" y="224.183" style="fill:#E0DCCD;" width="280.001" height="47.999"/>
<rect x="159.995" y="224.183" style="fill:#A8A59A;" width="119.996" height="47.999"/>
<rect x="167.999" y="248.184" style="fill:#FFFFFF;" width="271.997" height="24"/>
<g>
	<rect x="391.993" y="296.176" style="fill:#E0DCCD;" width="47.999" height="39.999"/>
	<polygon style="fill:#E0DCCD;" points="328.098,312.508 328.098,352.214 343.771,352.214 343.771,391.92 376.163,391.92 
		376.163,352.18 376.163,336.541 391.837,336.541 391.837,312.508 	"/>
</g>
<rect x="335.997" y="392.182" style="fill:#FCBB3B;" width="47.999" height="47.999"/>
<g>
	<polygon style="fill:#4BAF78;" points="376.163,336.541 376.163,391.92 383.478,391.92 383.478,439.986 439.902,439.986 
		439.902,392.179 439.902,384.179 439.902,336.541 	"/>
	<polygon style="fill:#4BAF78;" points="168.229,343.855 168.229,391.92 216.294,391.92 216.294,439.986 240.327,439.986 
		240.327,343.855 	"/>
</g>
<rect x="167.999" y="304.18" style="fill:#E0DCCD;" width="47.999" height="39.999"/>
<rect x="167.999" y="304.18" style="fill:#A8A59A;" width="24" height="39.999"/>
<rect x="167.999" y="344.179" style="fill:#1E834E;" width="15.999" height="47.999"/>
<rect x="167.999" y="392.182" style="fill:#E0DCCD;" width="47.999" height="47.999"/>
<rect x="167.999" y="392.182" style="fill:#A8A59A;" width="24" height="47.999"/>
<rect x="287.995" y="352.183" style="fill:#4BAF78;" width="55.999" height="88.001"/>
<g>
	<polygon style="fill:#75C0C7;" points="256,72.182 32.392,168.18 32.392,439.986 168.229,439.986 168.229,223.692 439.902,223.692 
		439.902,439.986 479.608,439.986 479.608,168.18 	"/>
	<polygon style="fill:#75C0C7;" points="256,72.182 32.392,168.18 32.392,439.986 168.229,439.986 168.229,223.692 439.902,223.692 
		439.902,439.986 479.608,439.986 479.608,168.18 	"/>
</g>
<polyline style="fill:#FFFFFF;" points="375.997,160.181 255.998,104.181 135.999,160.181 "/>
<polygon style="fill:#589095;" points="111.999,440.179 32,440.179 32,168.18 111.999,136.18 "/>
<rect x="72" y="224.183" style="fill:#FFFFFF;" width="64" height="64"/>
<rect x="72" y="320.178" style="fill:#E0DCCD;" width="64" height="119.996"/>
<polygon style="fill:#FCBB3B;" points="479.997,184.18 32,184.18 32,168.18 47.999,160.181 463.997,160.181 479.997,168.18 "/>
<polygon style="fill:#AF7C18;" points="135.703,184.18 32,184.18 32,168.18 35.703,160.181 135.999,160.181 "/>
<rect x="72" y="320.178" style="fill:#A8A59A;" width="24" height="119.996"/>
<rect x="207.935" y="240.41" width="192.261" height="15.673"/>
<rect x="207.935" y="264.443" width="15.673" height="15.673"/>
<rect x="231.967" y="264.443" width="144.196" height="15.673"/>
<rect x="383.478" y="264.443" width="16.718" height="15.673"/>
<rect x="87.771" y="376.247" width="16.718" height="15.673"/>
<path d="M64.163,216.343v79.673h79.673v-79.673H64.163z M128.162,248.769h-16.358v-16.752h16.358V248.769z M96.131,232.016v16.752
	H79.836v-16.752H96.131z M79.836,264.443h16.294v15.9H79.836V264.443z M111.804,280.343v-15.9h16.358v15.9H111.804z"/>
<rect x="80.457" y="176.671" width="351.086" height="15.673"/>
<path d="M487.967,432.671v-269.66L256,63.655L24.033,163.011v269.66H0v15.673h512v-15.673H487.967z M128.522,432.671h-49.11v-104.49
	h49.11V432.671z M175.835,312.508h8.067v7.314h15.673v-7.314h8.359v24.033h-32.099V312.508z M175.835,352.214h16.426v8.359h15.673
	v-8.359h24.033v80.457h-8.359v-48.065h-47.773V352.214z M175.835,400.279h8.067v8.359h15.673v-8.359h8.359v32.392h-32.099V400.279z
	 M376.161,432.342h-32.327v-32.326h8.296v8.622h15.673v-8.622h8.357V432.342z M432.16,391.92h-16.291v15.673h16.291v25.078h-40.326
	v-48.329h-63.674v48.329h-32.455v-49.11h16.718v-15.673h-16.718v-8.359h40.751v16.718h15.673v-32.392h-16.718v-24.033h16.718v8.359
	h15.673v-8.359h16.718v8.359h-16.718v48.065h15.673v-32.392h16.718v16.718h15.673v-16.718h16.291V391.92z M432.16,328.182h-31.964
	v-24.033h8.359v8.359h15.673v-8.359h7.932V328.182z M432.16,240.41h-16.291v15.673h16.291v8.359h-24.65v15.673h24.65v8.359h-47.638
	v15.673h-64.784v39.706h-39.706v88.816h-32.392v-96.131h-24.033v-39.706h-47.773v-16.718h23.74v-15.673h-23.74v-8.359h16.426V240.41
	h-16.426v-8.393H432.16V240.41z M472.294,176.671h-24.033v15.673h24.033v240.327h-24.46V216.343H160.162v216.328h-15.966V312.508
	H63.739v120.163H39.706V192.345h24.033v-15.673H39.706v-3.322L256,80.707l216.294,92.643V176.671z"/>
<rect x="304.065" y="408.639" width="15.673" height="15.673"/>
<path d="M378.368,152.639L255.999,95.533l-122.37,57.106h-13.466v15.673h271.673v-15.673H378.368z M247.641,152.639h-31.347v-21.28
	l31.347-14.629V152.639z M263.314,116.243l32.392,15.117v21.279h-32.392V116.243z M311.38,138.674l29.924,13.965H311.38V138.674z
	 M200.62,138.673v13.966h-29.928L200.62,138.673z"/>
<g>
</g>
<g>
</g>
<g>
</g>
<g>
</g>
<g>
</g>
<g>
</g>
<g>
</g>
<g>
</g>
<g>
</g>
<g>
</g>
<g>
</g>
<g>
</g>
<g>
</g>
<g>
</g>
<g>
</g>
</svg>
